<?xml version="1.0" encoding="utf-8"?>
<!-- Generator: Adobe Illustrator 26.0.3, SVG Export Plug-In . SVG Version: 6.00 Build 0)  -->
<svg version="1.1" xmlns="http://www.w3.org/2000/svg" xmlns:xlink="http://www.w3.org/1999/xlink" x="0px" y="0px"
	 viewBox="0 0 2902.68 2902.68" style="enable-background:new 0 0 2902.68 2902.68;" xml:space="preserve">
<style type="text/css">
	.st0{fill:#FFFFFF;stroke:#9FF5B0;stroke-width:7;stroke-miterlimit:10;}
	.st1{fill:none;stroke:#5EF5B0;stroke-width:12;stroke-miterlimit:10;}
	.st2{fill:#FFFFFF;}
	.st3{fill:none;stroke:#9FF5B0;stroke-width:7;stroke-miterlimit:10;}
	.st4{fill:none;stroke:#9FF5B0;stroke-width:6;stroke-miterlimit:10;}
	.st5{fill:#9FF5B0;}
	.st6{fill:none;}
	.st7{fill:#FFFFFF;stroke:#9FF5B0;stroke-miterlimit:10;}
	.st8{fill:none;stroke:#5EF5B0;stroke-width:9;stroke-miterlimit:10;}
	.st9{fill:none;stroke:#5EF5B0;stroke-width:10;stroke-miterlimit:10;}
	.st10{fill:#5EF5B0;}
	.st11{fill:none;stroke:#5EF5B0;stroke-width:6;stroke-miterlimit:10;}
	.st12{fill:#ECECEC;}
	.st13{fill:none;stroke:#9FF5B0;stroke-width:11;stroke-miterlimit:10;}
	.st14{fill:none;stroke:#5EF5B0;stroke-width:10.5641;stroke-miterlimit:10;}
	.st15{fill:none;stroke:#5EF5B0;stroke-width:8;stroke-miterlimit:10;}
	.st16{fill:#9FF5B0;stroke:#FFFFFF;stroke-width:7;stroke-miterlimit:10;}
	.st17{fill:none;stroke:#9FF5B0;stroke-miterlimit:10;}
	.st18{fill:#9FF5B0;stroke:#9FF5B0;stroke-miterlimit:10;}
	.st19{fill:none;stroke:#ECECEC;stroke-miterlimit:10;}
	.st20{fill:none;stroke:#ECECEC;stroke-width:2;stroke-miterlimit:10;}
</style>
<g id="Слой_2">
	<path class="st0" d="M1434.06,1246.63c2.18-10,7.95-28.25,25.68-47.69"/>
	<g>
		<g>
			<path class="st1" d="M1459.72,1202.97c-7.72,14.71-15.72,30.71-21.72,46.71c15,39,31,78,49.81,115.99"/>
		</g>
	</g>
	<path class="st2" d="M1216.74,1726.06"/>
	<path class="st0" d="M905.04,821.05"/>
	<path class="st2" d="M1684.78,1493.52"/>
	<path class="st2" d="M1554.24,2635.28c2.27,1.92,4.69,3.23,7.28,3.87c22.99,5.69,61.63-40.95,90.22-118.08l131.56-253.02"/>
	<g>
		<path class="st1" d="M2276.44,1715.57c-60.83,90.81-113.57,151.29-147.76,187.32c-19.78,20.85-45.52,40.22-82.39,48.53
			c-24.52,5.53-43.99,6.08-88.66-5.4c-18.31-4.71-50.33-12.04-92.65-21.08c-49.92-10.66-105.81-24.2-122.7-33.17
			c-17.17-9.12-40.81-23.36-59.13-51.85c-8.29-12.89-13.13-25.06-15.96-33.57l-28.51-78.32"/>
	</g>
	<path class="st2" d="M1668.62,2481.22"/>
	<path class="st0" d="M1638.69,1741.93"/>
	<path class="st1" d="M1641.04,1727.94c7.3,6.56,18.56,16.08,33.18,26.02c12.75,8.68,46.66,20.1,129.69,47.17
		c40.69,13.26,73.54,16.81,105.17,22.61c27.72,5.09,44.95,8.25,68.99,6.82c14.13-0.84,50.81-3.43,89.93-25.93
		c27.6-15.87,43.41-34.45,73.92-70.95c19.76-23.65,45.77-57.63,72.69-102.34c11.21-19.7,22.42-39.41,33.63-59.11
		c6.02-16.66,12.05-33.32,18.07-49.98"/>
	<path class="st1" d="M1646.58,1749.69c-53.54-129.36-107.08-258.72-160.62-388.08"/>
	<path class="st0" d="M662.05,1265.2"/>
	<path class="st3" d="M925.54,1177.82c-2.25-1.92-4.63-3.68-7.11-5.3"/>
	<path class="st0" d="M662.05,1265.2"/>
	<path class="st4" d="M727.35,1080.69c2.95-1.89,6.06,0.29,7.1,2.47c3.11,6.55,5.18,12.01,8.29,18.56
		c7.25,10.92,19.69,12.01,31.09,15.29c12.43,4.37,16.58,18.56,21.76,30.57c7.25,16.38,23.83,27.3,41.45,25.11
		c8.29-1.09,16.58-3.28,24.87-2.18c13.47,2.18,21.76,13.1,33.16,20.75c8.29,4.37,18.65,8.74,24.87-1.09
		c4.14-7.64,1.04-16.38-7.27-17.25"/>
	<path class="st5" d="M713.09,1058.14c-0.23-0.27-0.44-0.55-0.67-0.81c1.07,3.54,2.37,7.01,3.88,10.39l-0.67-4.14
		c1.78,4.07,4.04,7.93,6.7,11.49l-1.38-2.84c0.61,0.97,1.24,1.93,1.91,2.87l-1.68-3.51c1.05,1.49,2.12,2.96,3.21,4.42
		c-1.86-4.34-4.26-8.44-6.99-12.31c-0.86-1.79-1.71-3.58-2.57-5.37c-0.24-0.5-0.7-1.07-1.18-1.08c-1.23-2.53-2.46-5.05-3.7-7.58
		C710.73,1052.6,711.81,1055.42,713.09,1058.14z"/>
	<path class="st5" d="M730.82,1083.27c-2.41-6.31-5.16-12.48-8.25-18.48c-2-3.88-4.24-7.81-7.76-10.4
		c3.48,6.58,8.29,12.97,11.25,19.76c0.79,1.81,1.16,3.78,1.29,5.82C728.33,1081.26,729.38,1082.54,730.82,1083.27z"/>
	<path class="st5" d="M718.15,1090.18c-0.38,3.69,0.8,7.48,3.13,10.36c1.08-2.96,2.87-5.57,5.58-7.18c0.19-1.63,0.24-3.28,0.12-4.92
		c0.29-2.83,0.54-5.72,0.37-8.47c-0.07-0.1-0.15-0.2-0.22-0.29c-0.92-1.21-1.84-2.43-2.75-3.66c0.44,1.02,0.85,2.05,1.22,3.1
		c-1.16-1.29-2.24-2.64-3.28-4.03c0.23,0.48,0.46,0.95,0.7,1.43c1.33,2.72,2.66,5.47,3.42,8.4c0,0.01,0,0.02-0.01,0.02
		c-4.02-5.32-7.42-11.11-10.13-17.21l3.27,20.13C718.62,1088.06,718.25,1089.21,718.15,1090.18z"/>
	<path class="st5" d="M915.1,1173.9c-3.12-3.31-6.28-6.62-9.92-9.33c-4.46-3.32-9.54-5.66-14.56-8.02c-3.31-1.55-6.6-3.13-9.9-4.72
		c-0.95,0.13-1.99,0-3.06-0.5c-5.07-2.38-9.94-4.97-14.48-8.14c-8.54-4.3-17.02-8.73-25.43-13.28
		c-12.13-6.2-24.15-12.59-35.51-20.18c-2.34-1.4-4.69-2.79-7.02-4.21c-0.65-0.22-1.29-0.59-1.9-1.16
		c-5.57-3.42-11.11-6.9-16.61-10.46c-7.21-4.66-14.37-9.45-20.87-15.07c-6.74-5.82-12.98-12.34-19.12-18.92
		c-7.71-4.02-12.65-11.17-17.43-19.55c-1.24-1.09-2.63-1.79-4.28-1.67c-6.8,0.5-7.2,9.78-7.14,14.72l0.41,31.28
		c0.08,6.4,0.3,13.23,3.91,18.48c0.82,1.2,1.9,2.22,3.12,3.06c0.05-0.5,0.15-1,0.24-1.5c-1.13-6.46,1.82-13.04,8.05-16.75
		c0.25-0.15,0.5-0.28,0.76-0.41c1.16,1.59,2.56,3.27,4.24,4.94c4.94,4.9,10.22,7.66,14.11,9.23c1.32,3.06,2.95,4.29,4.2,4.84
		c1.88,0.83,4.39,0.81,4.68,2.02c0.07,0.28,0,0.54-0.06,0.7c3.67,3.44,8.5,5.81,13.25,7.63c7.15,2.72,14.79,4.78,20.67,9.7
		c12.95,10.85,14.01,32.73,28.67,41.08c9.04,5.15,20.17,3.27,30.55,3.34c9.73,0.07,19.44,2.01,28.46,5.69
		c10.35,4.22,19.68,10.65,29.88,15.22c2.98,1.33,6.12,2.53,9.39,2.52c3.26-0.01,6.69-1.43,8.32-4.28
		C923.82,1184.82,919.33,1178.39,915.1,1173.9z"/>
	<path class="st6" d="M768.64,1101.26c0.15,0,0.31,0,0.46,0"/>
	<path class="st5" d="M751.96,1077.59c1.8,0.94,3.6,1.89,5.4,2.83c-1.5-0.81-2.99-1.62-4.49-2.43c1.41,1.46,2.82,2.92,4.22,4.38
		c-2.31-1.83-4.73-3.53-7.24-5.08c1.67,1.4,3.33,2.81,5,4.21c-0.97-0.95-1.94-1.9-2.91-2.85c2.57,1.44,4.88,3.36,6.77,5.63"/>
	<path class="st5" d="M762.08,1085.15c0.4,0.68,0.77,1.39,0.94,2.16c0.05,0.25,0.08,0.53-0.06,0.75c-0.12,0.19-0.35,0.28-0.57,0.35
		c-2.59,0.85-5.42,0.21-8.02-0.62c-2.83-0.9-5.75-2.15-7.45-4.59c-2.7-3.87-0.69-8.5,4.02-7.17
		C755.51,1077.32,759.7,1081.14,762.08,1085.15z"/>
	<path class="st5" d="M838.5,1167.14c-1.48,0.72-3.53,0.74-4.31,2.19c-0.63,1.18,0.05,2.72,1.15,3.49s2.5,0.93,3.83,1.05
		c1.08,0.09,2.18,0.17,3.22-0.12c1.04-0.28,2.03-0.99,2.36-2.02c0.5-1.54-0.66-3.22-2.13-3.87c-1.48-0.66-3.16-0.56-4.77-0.44"/>
	<path class="st5" d="M910.63,1170.35c-1.49,0.15-2.6,1.7-2.54,3.2s1.09,2.84,2.4,3.59s2.84,0.98,4.34,1.01
		c0.35,0.01,0.73,0,1.03-0.19c0.37-0.23,0.53-0.69,0.62-1.12c0.32-1.69-0.29-3.54-1.56-4.7s-3.16-1.61-4.82-1.13"/>
	<path class="st5" d="M713.37,1036.32c-0.23-0.58-0.45-1.17-0.67-1.76l-0.59-0.1c-0.55,2.37-0.12,4.96,1.18,7.03
		c0.37,0.59,0.86,1.17,1.53,1.35c0.82,0.22,1.7-0.24,2.19-0.93c0.47-0.66,0.63-1.49,0.69-2.3
		C715.92,1039.4,714.2,1038.37,713.37,1036.32z"/>
	<path class="st7" d="M617.28,1483.95l19.74-5.9l18.34-3.95c8.72-1.74,22.92-3.42,39.69,0c5.36,1.09,20.75,4.7,39.19,17.43
		c24.83,17.13,27.57,31.72,51.36,58.7c13.49,15.3,27.5,31.18,47.69,42.19c44.68,24.36,94.8,11.31,110.06,7.34
		c36.23-9.43,59.24-27.37,93.55-54.11c36.35-28.34,32.82-33.96,77.96-70.62c34.84-28.3,52.82-42.66,79.8-53.2
		c30.21-11.8,37.13-6.18,70.62-21.1c24.75-11.03,46.63-20.77,60.54-43.11c10.89-17.5,4.59-22.96,18.34-55.03
		c4.42-10.3,13.13-28.53,27.52-47.69c18.5-24.63,25.14-22.52,45.86-47.69c19.82-24.09,34.05-41.38,32.1-62.37
		c-1.98-21.33-18.79-26.17-15.59-44.03c2.77-15.43,18.26-28.22,33.02-30.27c9.9-1.37,20.67,1.93,21.1,5.5
		c0.37,3.09-7.26,4.41-14.68,12.84c-0.49,0.56-6.26,7.22-8.25,14.68c-3.41,12.71,5.95,21.01,12.84,39.44
		c1.21,3.22,7.91,21.65,6.42,38.52c-1.51,17.17-11.48,29.36-15.14,34.12c-7.54,9.78-15.16,15.11-16.96,16.32
		c-6.36,4.27-12.34,6.7-16.65,8.11"/>
	<path class="st0" d="M2239.95,1438.35"/>
	<path class="st0" d="M1438.68,1173.94c-3.5-4.75-14.06-17.77-32.59-22.7c-4.9-1.3-19.23-5.11-33.02,1.38
		c-4.02,1.89-7.27,4.47-13.76,9.63c-10.48,8.33-10.94,11.17-11.01,12.38c-0.27,4.83,4.28,10.27,9.63,12.38
		c11.02,4.35,18.47-8.18,31.64-4.13c5.57,1.71,13.76,6.88,13.76,6.88l0,0c2.75,5.04,5.5,10.09,8.25,15.13"/>
	<path class="st0" d="M821.38,1894.17c5.93,5.57,16.66,13.91,31.64,16.51c13.61,2.36,24.65-1.07,42.65-6.88
		c22.2-7.17,25.99-12.5,44.03-16.51c12.43-2.77,23.09-3,30.27-2.75"/>
	<path class="st0" d="M947.95,1857.03c6.93,4.1,18.11,9.17,31.64,8.25c2.71-0.18,5.99-0.64,17.89-4.13
		c16.78-4.92,25.16-7.38,33.02-11.01c20.1-9.27,20.87-16.55,38.52-23.39c10.44-4.04,12.48-1.85,24.76-5.5
		c15.26-4.54,26.65-11.63,33.94-16.97"/>
	<path class="st8" d="M1263.63,1138.4c-112.33-48.6-195.82-83.12-221.86-92.99c-24.21-9.17-44.74-15.7-44.74-15.7
		c-8.97-2.85-16.61-5.1-28.89-8.71c-19.16-5.64-33.81-9.7-38.52-11.01c-24.66-6.82-36.99-10.22-50.45-13.3
		c-8.7-1.99-4.57-0.86-56.41-10.55c-18.28-3.41-30.17-5.68-46.78-6.42c0,0-11.48-0.51-27.97,1.38c-6.78,0.78-13.77,1.91-21.55,5.5
		c-6.77,3.13-9.37,5.91-10.55,7.34c-3.68,4.46-4.72,9.24-5.5,12.84c-0.53,2.44-1.59,7.54-0.46,13.76c1.21,6.67,4.34,11.3,6.42,14.22
		c13.37,18.73,23.85,27.06,23.85,27.06c38.81,30.81,78.88,53.2,78.88,53.2c28.05,15.67,22.94,11.87,62.37,33.48
		c26.79,14.68,37.43,20.97,70.62,38.98c30.18,16.37,39.44,20.96,48.61,25.22c21.32,9.9,39.45,16.75,51.82,21.1"/>
	<path class="st5" d="M1133.32,1829.6c-0.84,0.65-1.72,1.24-2.64,1.77l-139.53,93.58c-5.4,2.6-9.39,4.72-9.19,5.22
		c0.18,0.46,3.93-0.34,32.56-9.86c20-6.65,30-9.97,47.69-16.28c33.59-11.97,50.58-18.07,60.31-23.85
		c20.85-12.38,31.72-24.5,34.17-27.29c6.15-7.01,10.38-13.79,18.57-27.06c5.9-9.55,13.79-22.89,22.47-39.44L1133.32,1829.6z
		 M999.31,1921.12c5.26-2.65,9.93-4.82,13.83-6.53c2.73-1.2,5.48-2.36,5.5-2.29C1018.7,1912.41,1008.83,1916.73,999.31,1921.12z"/>
	<path class="st5" d="M1119.01,1651.24c3.26,2.2,7.89,1.22,15.82-0.46c1.13-0.24,2.08-0.48,3.67-0.69c3.93-0.53,6.74-0.9,9.4,0.46
		c0.34,0.18,3.17,1.67,4.36,4.82c1.36,3.58-0.23,7.11-2.29,11.69c-1.19,2.64-2.48,4.75-5.27,10.78c-1.2,2.59-1.72,3.83-1.15,4.59
		c1.04,1.37,5.14,0.37,8.03-1.38c4.04-2.45,5.78-6.41,6.19-7.34c5.58-12.52,25.34-46.67,32.56-58.24
		c7.02-11.26,12.9-18.35,10.55-21.32c-1.41-1.79-4.88-0.95-10.55,0.23c-31.95,6.66-40.52,4.88-48.84,13.07
		c-1.64,1.62-3.28,3.62-6.88,6.65c-6.3,5.3-8.2,4.95-12.38,9.17c-2.1,2.12-5.7,5.84-7.11,11.69c-1.03,4.28-0.37,7.58-0.23,8.25
		C1115.4,1645.7,1116.17,1649.33,1119.01,1651.24z"/>
	<path class="st5" d="M1231.06,1713.58c-0.67-0.56-2.46,1.48-8.09,5.42c-2.12,1.48-3.75,2.5-15.89,9.24
		c-11.46,6.36-17.19,9.54-19.79,10.83c-2.33,1.16-8.63,4.26-12.65,6.23c1.49-0.48,3.19-0.67,4.56,0.14c1.33,0.79,2.03,2.36,2.4,3.19
		c0.31,0.69,0.72,1.84,0.9,5.42c0.08,1.52,0.18,3.64,0,5.42c-0.44,4.34-2.67,7.47-4.5,10.19c-2.9,4.32-5.13,9.11-8.09,13.38
		c-13.93,20.08-16.93,26.07-20.31,30.57c-0.09,0.24-0.2,0.48-0.34,0.73c-2.34,4.23-5.61,7.38-9.17,10.21
		c-0.21,0.29-0.46,0.54-0.72,0.78c-1.57,1.88-3.29,3.58-5.18,4.97c0.01,0.07,0.03,0.14,0.05,0.21c0.88,2.47,7.56,2.48,12.59,1.27
		c7.37-1.76,10.29-5.89,22.79-18.48c14.6-14.71,17.54-16.05,22.49-24.21c1.78-2.94,1.24-2.5,7.2-14.34
		c5.23-10.39,9.32-18.03,12.29-23.58C1225.1,1725.92,1232.53,1714.82,1231.06,1713.58z"/>
	<path class="st5" d="M1139.03,1866.05"/>
	<line class="st8" x1="0" y1="2902.68" x2="0" y2="2902.68"/>
	<path class="st8" d="M1076.66,1068.08"/>
	<g>
		<path class="st5" d="M994.73,1034.76c8.96-1.5,18.73,4.8,26.9,9.17c3.24,1.73,12.76,5.33,31.8,12.54
			c13.44,5.08,12.35,4.23,29.66,10.7c25.27,9.45,21.99,9.17,27.21,10.39c6.69,1.57,12.63,5.55,19.26,7.34
			c0.99,0.27,3.97,1.04,4.28,2.75c0.31,1.73-2.26,3.68-3.06,4.28c-1.7,1.29-3.34,1.74-3.67,1.83c-4.32,1.16-8.58-0.81-9.48-1.22
			c-21.41-9.76-44.33-15.82-66.34-24.15c-26.93-10.19-40.4-15.28-46.78-16.2c-4.3-0.62-6.43-1.64-10.7-3.67
			c-2.17-1.03-4.28-2.24-5.81-4.59c-0.61-0.94-1.79-2.74-1.53-4.89c0.42-3.53,4.42-5.64,4.28-5.81c-0.11-0.13-2.36,1.21-2.14,1.83
			C988.91,1035.9,993.43,1034.98,994.73,1034.76z"/>
		<path class="st5" d="M994.19,1031.53c10.45-1.56,19.83,4.47,28.55,9.13c7.16,3.56,23.06,9.18,30.69,12.3
			c17.62,6.68,35.81,12.78,53.08,20.3c1.61,0.71,2.74,1.11,4.42,1.5c6.93,1.65,12.78,5.64,19.31,7.49c3.3,0.71,7.61,3.25,6.01,7.43
			c-0.81,2.05-2.41,3.29-3.96,4.48c-3.12,2.42-7.56,3.12-11.3,2.25c-1.87-0.36-3.68-1.11-5.39-1.91c-4.65-2.11-9.37-4.04-14.15-5.87
			c-12.8-4.93-25.91-9.02-38.92-13.47c-16.26-5.61-32.18-12.07-48.49-17.43c-3.1-0.97-6.39-2.03-9.52-2.54
			c-3.62-0.4-7.42-1.69-10.6-3.25c-9.79-3.69-15.23-13.93-5.41-20.94c-0.2,0.24,0.04-0.14-0.51,0.63c-0.93-0.42,0.65,6.99,2.81,4.82
			c0.75-0.07,0.5-0.07,0.8-0.13c0,0,0.16-0.05,0.16-0.05c0.16-0.07-0.02,0.02-0.09,0.07c-0.1,0.06-0.21,0.14-0.29,0.2
			c-0.09,0.07-0.14,0.12-0.14,0.12c0.01-0.01,0.03-0.02,0.11-0.13c0.01-0.02,0.1-0.13,0.16-0.26c0.85-1.53-0.17-3.75-1.84-4.07
			C990.99,1032.19,992.69,1031.77,994.19,1031.53L994.19,1031.53z M995.27,1037.99c-2.06,0.31-4.02,0.79-6.37,0.59
			c-0.33-0.02-1.15-0.22-1.53-0.44c-1.63-0.72-2.48-2.93-1.73-4.56c0.55-1.27,1.58-2.07,2.66-2.74c0.76-0.41,1.13-0.72,2.3-0.82
			c2.22-2.17,3.87,5.28,2.87,4.91c-0.58,0.81-0.38,0.47-0.62,0.75c-1.54,1.27-3.47,2.48-3.27,4.3c0.81,3.42,3.68,4.99,6.9,6.46
			c1.53,0.73,2.98,1.41,4.39,1.88c3.18,1.01,6.83,1.28,9.92,2.36c11.59,3.61,22.8,8.21,34.11,12.49
			c12.82,5.09,25.72,9.41,38.79,13.78c11.46,3.82,22.96,7.83,34.02,12.78c3.73,1.89,8.46,2.79,11.82-0.24
			c0.72-0.54,1.31-1.15,1.63-1.74c0-0.04-0.08,0.22,0.02,0.5c0.09,0.27,0.18,0.3,0.09,0.23c-0.72-0.49-1.44-0.67-2.48-0.96
			c-3.63-0.96-6.9-2.46-10.03-3.83c-4.11-1.95-7.73-3.02-11.9-4.08c-1.71-0.56-5.64-2.26-7.36-2.94
			c-22.3-8.87-45.41-16.06-67.75-24.82c-4.81-1.89-9.97-3.79-14.53-6.46C1010.44,1041.85,1003.12,1037.04,995.27,1037.99
			L995.27,1037.99z"/>
	</g>
	<path class="st9" d="M1146.65,1269.12c31.35,11.56,63.35,19.56,95.16,30.33"/>
	<g>
		<path class="st10" d="M1249.24,1148.62c7.64,2.92,18.83,7.05,26.61,9.95c7.7,3.04,16.1,4.46,23.35,8.57
			c0.96,0.76,1.77,1.85,2.11,4.02c0,0-1.2,2.75-1.2,2.75c-3.15,2.16-4.97,1.12-7.73-0.01c-6.58-2.7-12.45-6.89-18.87-9.93
			c-7.46-3.71-18.05-9-25.45-12.59C1248.06,1151.37,1249.24,1148.62,1249.24,1148.62L1249.24,1148.62z"/>
	</g>
	<g>
		<path class="st10" d="M916.66,1019.75c12.5,2.3,26.44,6.15,38.78,9.48c4.28,1.14,8.54,2.33,12.81,3.42
			c3.14,1.14,6.24,2.38,9.18,3.62c4.75,2.09,12.4,4.4,17.41,6.1c8.3,2.92,18.4,6.37,26.59,9.42c17.66,6.48,34.73,14.43,51.97,21.92
			c21.91,9.43,47.47,19.13,69.82,27.63c5.73,2.13,20.58,7.87,26.25,9.89c4.02,1.4,11.82,3.93,15.74,5.67
			c13.9,6.52,31.1,13.48,44.87,20.21c5.58,2.89,11.04,6.09,16.05,10.17c0,0-1.26,2.72-1.26,2.72c-15.5-2.92-29.72-10.1-44.11-16.2
			c-6.03-2.75-13.35-6.05-19.17-8.95c-6.33-2.9-13-4.95-19.44-7.76c-26.62-11.34-55.37-23.64-82.43-33.83
			c-20.5-7.55-41.59-13.81-62-21.55c-11.26-4.33-27.19-10.34-38.36-14.67c-4.7-1.97-9.38-4.42-13.94-6.44
			c-5.45-1.72-17.87-6.26-24.71-8.8c-6.85-2.56-17.95-6.72-24.84-9.15C915.89,1022.65,916.66,1019.75,916.66,1019.75L916.66,1019.75
			z"/>
	</g>
	<path class="st5" d="M1006.09,1213.15c-124.17-67.09-214.84-116.76-231.53-126.73c-8.48-5.07-16.98-11.19-16.98-11.19
		c-8.5-6.12-16.36-11.84-24.76-20.85c-6.95-7.46-13.1-14.18-17.2-25.02c-2.44-6.44-5.29-13.99-2.75-22.94
		c2.66-9.38,9.63-14.57,11.69-15.99c2.05-1.41,5.97-3.71,22.7-5.56c6.05-0.67,5.09-0.32,28.89-1.39c0,0,3.45-0.16,26.14,1.39
		c0.8,0.05,3.77,0.29,6.88,2.09c1.74,1,4.16,2.41,4.82,5.21c0.53,2.24-0.16,4.97-1.88,6.37c-0.83,0.67-1.75,0.92-3.5,1.39
		c0,0-1.82,0.49-3.5,0.63c-16.78,1.42-42-5.05-42-5.05c-2.42-0.62-7.69-2.01-14.23-1.01c-2.01,0.31-4.35,0.69-6.77,2.02
		c-6.3,3.47-8.34,10.77-9,13.14c-3.95,14.13,5.67,28.4,9,33.35c9.6,14.24,21.94,21.45,25,23.24c85.48,50,90,57.8,152,84.88
		c8.39,3.67,7.84,3.32,14,6.06c60.31,26.88,61.41,37.12,83,38.4c6.13,0.36,14.65,0.04,21,6.06c5.6,5.3,8.64,14.71,5.44,18.4
		c-1.04,1.2-3.24,2.37-13.25,0.46c-6.42-1.22-15.81-3.66-26.83-9.04"/>
	<path class="st1" d="M751.9,999.22c-1.65,0-6.09,0.23-9.63,3.44c-2.41,2.18-3.37,4.8-4.13,6.88c-0.26,0.72-1.24,3.51-1.38,7.57
		c-0.16,4.92,1.03,8.6,2.06,11.69c2.13,6.39,5.22,10.88,6.88,13.07c1.97,2.6,3.51,4.05,8.94,8.94c9.77,8.81,14.66,13.21,16.51,14.45
		c3.87,2.59,9.75,5.88,17.89,8.25"/>
	<path class="st11" d="M800.05,1017.79c10.93,0.96,19.23,1.66,24.08,2.06c10.92,0.91,15.5,1.25,22.01,2.75
		c6.54,1.51,11.74,3.42,15.13,4.82"/>
	<path class="st8" d="M1304.28,1332.16c12.1,3.22,28.56,6.29,48.15,6.19c23.4-0.11,42.56-4.69,55.72-8.94"/>
	<path class="st1" d="M1527.62,1154"/>
	<path class="st5" d="M2260.3,1522.4c-2.67-8.66-13.51-44.13-16.26-53.2c-13.68,6.41-33.45,17.91-49.85,38.37
		c-28.91,36.07-17.65,62.93-40.03,77.04c-25.67,16.19-67.14-2.4-120.09-26.14c-24.82-11.13-30.61-16.23-45.55-23.39
		c-69.03-33.04-109.76-2.68-194.64-13.76c-33.47-4.37-126.27-16.48-164.27-79.8c-19.21-32.02-10.85-54.52-21.93-80.81
		c-2.88-6.84-7.76-14.43-15.34-23.75c-18.59-22.88-31.57-22.81-51.28-46.32c-9.7-11.58-8.22-13.58-18.34-24.15
		c-10.51-10.97-20.3-17.37-31.15-24.46c-19.25-12.58-29.9-15.65-33.13-16.51c-5.55-1.48-10.36-2.2-13.92-2.58v30.92
		c0.12,0.28,5.63,13.41,14.14,33.72c0.09-0.02,0.18-0.03,0.27-0.05c0,0,0.15-0.02,0.28-0.03c0.29-0.03,1.12,1.72,1.5,2.22
		c1.04,1.38,3.68,0.11,8.28,0c4.04-0.1,4.55,0.82,6.9,0c0.09-0.03,4.19-1.94,4.07-1.88c0,0,0.65,8.97-2.99,9.33
		c-4.71,0.46-9.42,0.38-14.14,0.33c27.78,66.25,78.71,187.7,91.32,217.85l59.82,141.25l27.15,67.41
		c8.73,8.25,22.3,19.55,40.95,29.35c6.43,3.38,11.65,5.62,50.15,18.8c30.12,10.31,45.19,15.46,60.74,20.18
		c7,2.12,25.96,7.8,51.07,14.22c35.85,9.17,58.96,13.39,66.18,14.68c22.63,4.03,32.43,4.75,38.61,5.04
		c1.82,0.09,14.31-0.41,39.23-1.38c11.61-0.45,17.58-0.7,25.58-2.29c7.96-1.58,14.26-2.83,21.6-6.42c2.85-1.39,12.6-6.44,18.22-9
		c0.3-0.14,1.22-0.55,2.46-1.15c1.89-0.9,4.35-2.11,7.14-3.62c13.14-7.08,22.05-14.22,24.85-16.51c0.81-0.67,1.49-1.25,2.84-2.42
		c3.73-3.21,13.65-11.79,23.55-21.89c5.86-5.98,11.26-12.4,22.06-25.22c6.57-7.81,10.54-12.53,15.63-19.26
		c1.73-2.29,2.93-3.95,3.64-4.92c13.84-19,18.75-22.78,27.62-35.89c7.02-10.38,9.02-15.51,18.78-31.18
		c0.59-0.95,2.49-3.96,4.91-8.09c3.96-6.77,5.84-10.71,19.02-32.72c12.09-20.2,14.07-23.1,17.95-30.73
		c5.69-11.2,12.08-26.18,17.02-45.1C2260.71,1526.48,2260.51,1524.44,2260.3,1522.4z"/>
	<path class="st8" d="M1469.65,1320.48c15.86,0.18,31.89-1.55,48.94-4.27c54.99-8.76,97.03-16.97,137.42-27.28
		c22.69-5.79,52.9-14.05,88.33-25.34"/>
	<path class="st5" d="M1666.11,961.84"/>
	<path class="st1" d="M1949.53,1642.1c7.22,21.64,14.09,43.42,21.81,64.89c7.61,21.16,15.86,42.07,23.58,63.19
		c2.1,5.73,4.22,11.47,6.04,17.29c1.81,5.79,2.64,11.68,5.63,17.06"/>
	<path class="st1" d="M1828.56,1296.68c22.44,69,47.44,137,72.41,205.47"/>
	<path class="st1" d="M1770.54,1131.74c10.56,30.18,21.74,60.13,32.2,90.34c2.99,8.62,5.91,17.26,8.75,25.93"/>
	<path class="st12" d="M1496.66,1293.31l6.88,21.3c-2.21,0.55-4.5,1.04-6.88,1.47c-9.48,1.7-18.22,1.91-25.91,1.36l-9.36-23.75"/>
	<path class="st12" d="M1503.8,1322.52c7.52-0.87,22.72,26,56.25,145.21l38.22,94.02l41.27,107.8c2.24,8.87,6.01,19.87,12.54,31.54
		c10.48,18.72,24.75,30.82,39.13,43.18c15.91,13.68,26.01,19.45,25.07,21.13c-1.29,2.32-21.7-6.46-35.16-13.47
		c-14.6-7.61-23.73-14.56-28.43-18.37c-5.12-4.15-9.21-8-12.23-11.02c-13.26-31.14-26.52-62.28-39.78-93.41
		c-0.66-1.54-1.68-3.88-2.85-6.76c-1.66-4.1-11.3-29.42-10.87-28.3c3.19,8.38-5.7-8.61-6.21-9.47c-3.09-5.24-30.14-73.71-34.6-86.69
		c-5.98-14.54-14.44-33.11-20.59-47.76c-11.02-26.26-19.7-48.26-30.83-73.91c-7.01-16.8-14.02-33.6-21.03-50.4
		c2.82-0.08,7.32-0.26,12.84-0.8C1496.32,1324.06,1502.64,1322.65,1503.8,1322.52z"/>
	<path class="st1" d="M1743,1614.13c-36.39-2.6-72.68-6.61-108.79-11.77c-11.03-1.58-22.05-3.26-33.05-5.05"/>
	<path class="st1" d="M2065.74,1562.84c-15.74,8.84-31.74,16.84-48.74,24.84c-7,3-15,3-22,6c-12,6-24,10-36.79,13.39"/>
	<path class="st1" d="M2234.42,1418.75c-19.47,26.63-40.85,51.57-64.24,74.07c-6.69,6.44-13.54,12.68-20.53,18.73"/>
	<path class="st12" d="M1573.41,1561.51c-0.51-0.86,8.84,17.37,8.84,17.37"/>
	<path class="st5" d="M1357.94,1326.17c4.79-1.12,8.8-1.79,11.46-1.98c1.66-0.12,6.79-0.1,8.98-0.23c2.58-0.15,3.23-0.14,3.97-0.18
		c0.58-0.03,0.4,0.07,0.96,0c2.59-0.33,1.12-0.52,1.57-0.05c0.41,0.43,0.69,1.79-1.12,4.93c-0.49,0.84-1.11,1.73-2.2,2.76
		c-1.48,0.19-2.98,0.33-4.47,0.54c-10.46,1.48-18.29,1.91-25.45,1.91L1357.94,1326.17z"/>
	<line class="st13" x1="1535.94" y1="731.17" x2="1535.94" y2="821.05"/>
	<line class="st13" x1="1530.66" y1="859.58" x2="1530.66" y2="947.17"/>
	<line class="st13" x1="1240.64" y1="918.05" x2="1312.04" y2="998.49"/>
	<line class="st13" x1="1342.51" y1="1030.35" x2="1402.59" y2="1106.73"/>
	<line class="st14" x1="1515.3" y1="843.07" x2="1414.35" y2="843.07"/>
	<line class="st14" x1="1554.03" y1="843.07" x2="1659.95" y2="843.07"/>
	<line class="st14" x1="1351.64" y1="999.22" x2="1426.52" y2="931.12"/>
	<line class="st14" x1="1308.23" y1="1034.38" x2="1235.82" y2="1095.04"/>
	<g>
		<path class="st5" d="M1746.57,1097.1c5.12-6.02,11.4-6.81,27.24-9.27c3.73-0.58,13.62-3.55,33.39-9.5
			c13.96-4.2,12.52-4.24,30.44-9.71c20.79-6.35,23.35-6.49,25.97-7.42c1.1-0.39,1.91-0.78,2.37-1c5.35-2.5,12.26-6.75,18.88-9.38
			c3.33-1.32,9.71-3.86,11.01-2.06c0.85,1.18-1.3,3.16-3.92,10.72c-0.82,2.35-0.84,2.88-1.53,3.91c-2.51,3.75-7.19,4.77-8.17,4.99
			c-23.42,5.27-45.39,14.67-68.26,21.55c-27.98,8.42-41.97,12.63-47.54,15.9c-3.75,2.21-6.12,2.69-10.85,3.67
			c-2.41,0.5-4.89,0.8-7.73-0.23c-1.38-0.5-3.78-1.29-4.64-3.22C1741.77,1102.74,1745.62,1098.21,1746.57,1097.1z"/>
		<path class="st5" d="M1744.07,1094.97c6.34-7.81,17.39-8.48,26.45-10.09c5.12-0.65,10.03-2.24,15.08-3.68
			c0,0,20.43-5.97,20.43-5.97c13.42-4,27.28-8.8,40.76-12.52c3.43-0.98,6.88-1.93,10.36-2.83c3.54-0.85,6.25-1.51,9.48-3.22
			c7.81-3.92,16.01-8.85,24.99-10.96c1.15-0.23,2.46-0.4,3.67-0.18c2.19,0.27,4.28,2.65,3.18,5.42c-0.66,1.83-1.6,3.33-2.32,5.07
			c-0.69,1.55-1.31,3.14-1.86,4.75c-0.52,1.79-1.45,4.26-2.97,5.65c-2.92,3.1-6.9,4.2-10.85,5.01c-8.57,2-16.98,4.56-25.37,7.32
			c-13.41,4.49-26.75,9.47-40.44,13.7c-13.72,4.45-31.99,9.3-45.01,15.06c-1.63,0.8-3.12,1.81-4.81,2.54
			c-3.7,1.57-7.3,2.27-11.19,2.9c-3.21,0.41-6.5-0.31-9.53-1.85C1736.92,1107.41,1739.82,1099.66,1744.07,1094.97L1744.07,1094.97z
			 M1749.07,1099.22c-1.38,1.61-2.62,3.24-2.94,5.06c-0.02,0.36,0.01,0.4,0.07,0.51c0.52,0.75,1.8,1.09,2.89,1.53
			c1.96,0.74,4.07,0.52,6.22,0.06c2.34-0.49,5.04-0.97,7.1-1.88c3.17-1.57,6.47-3.39,9.81-4.49c11.75-4.24,28.85-8.96,40.92-12.59
			c22.05-6.48,43.63-15.6,66.13-21c1.1-0.28,3.68-0.81,4.76-1.3c1.9-0.76,3.67-2.03,4.51-3.71c0.19-0.46,0.49-1.47,0.78-2.32
			c1.07-3.34,2.64-6.64,4.05-9.82c0.04-0.1,0.02-0.13,0.01,0.01c-0.03,0.14,0.04,0.58,0.22,0.9c0.35,0.65,0.88,0.65,0.73,0.65
			c0.03-0.02-0.14,0-0.2-0.01c-2.07,0.15-3.98,0.93-6.07,1.69c-8.24,2.9-15.64,8.35-24.12,11.65c-5.32,1.49-10.21,2.74-15.44,4.35
			c-9.8,2.92-20.61,6.4-30.33,9.75c-10.18,3.35-20.37,6.39-30.64,9.5c-5.16,1.47-10.5,3.17-15.95,3.86c0,0-5.23,0.82-5.23,0.82
			C1760.05,1093.59,1753.26,1094.22,1749.07,1099.22L1749.07,1099.22z"/>
	</g>
	<g>
		<path class="st10" d="M1629.75,1163.33c10.93-6.49,23.96-12.77,35.44-18.39c3.98-1.96,7.97-3.86,11.9-5.86
			c3.12-1.21,6.27-2.31,9.29-3.32c4.95-1.56,12.23-4.84,17.12-6.86c8.17-3.27,18.05-7.31,26.22-10.41
			c17.56-6.74,35.65-11.99,53.55-17.7c22.7-7.32,48.34-16.83,70.76-25.15c5.72-2.17,20.68-7.62,26.27-9.83
			c3.95-1.59,11.48-4.82,15.58-6.08c14.76-4.24,32.29-10.31,47.09-14.31c6.1-1.49,12.32-2.68,18.78-2.9l0.84,2.88
			c-13.59,8.01-29.02,11.95-43.87,16.82c-6.35,1.9-14.04,4.23-20.32,5.88c-6.67,1.98-13.04,4.83-19.74,6.95
			c-27.5,8.98-57.25,18.63-84.33,28.77c-20.4,7.8-40.41,16.97-60.87,24.57c-11.33,4.15-27.28,10.1-38.54,14.19
			c-4.84,1.61-9.97,2.85-14.73,4.32c-5.23,2.29-17.58,7.04-24.39,9.64c-6.84,2.58-17.94,6.76-24.72,9.46
			C1631.08,1166.02,1629.75,1163.33,1629.75,1163.33L1629.75,1163.33z"/>
	</g>
	<path class="st5" d="M2115.19,1012.77c-4.85-8.43-12.38-11.72-18.81-14.52c-10.82-4.72-20.01-4.88-30.3-4.95
		c-12.44-0.09-22.07,1.8-32.43,3.88c0,0-10.37,2.09-19.95,4.92c-8.13,2.4-31.19,10.02-65.61,21.63c0.97,3.88,1.79,7.81,2.19,11.66
		c19.71-5.67,44.32-12.39,83.43-24.38c3.43-1.05,17.25-5.29,34.36-2.33c5.94,1.03,23.09,3.99,30.79,17.27
		c1.29,2.23,5.27,9.08,3.49,16.43c-0.68,2.82-2.01,4.89-3.17,6.66c-1.61,2.46-3.38,4.41-5.05,5.96c1.89,1.33,3.46,2.94,4.97,4.62
		c0.35-0.21,0.72-0.4,1.14-0.57c1.19-0.48,2.5-0.25,3.61,0.38c1.33-1.63,2.14-2.7,3.54-4.65c10.16-14.18,11.16-18.86,11.54-21.45
		C2119.3,1030.73,2120.27,1021.62,2115.19,1012.77z"/>
	<path class="st5" d="M2039.97,1089.21c-10.95,6.28-27.77,11.31-66.75,34.61c-5.84,3.49-5.22,3.24-13.12,8.04
		c-55.24,33.59-66.5,34.6-145.32,69.89c1.43,4.54,2.64,9.12,3.62,13.74c1.48-0.61,2.98-1.24,4.45-1.9
		c17.29-7.64,104.54-50.23,224.57-109.71C2044.47,1099.3,2041.98,1094.35,2039.97,1089.21z"/>
	<path class="st8" d="M1577.78,1279.48c-59.23,10.55-113.59,9.27-113.59,9.27c-4.14-0.1-7.45-0.22-9.23-0.3
		c0,0-12.94-5.54-11.72-42.73c0.32-9.63,16.66-22.97,44.57-38.81c94.44-53.57,321.35-135.73,508.5-199.66
		c9.72-3.24,20.6-6.29,32.54-8.76c39.59-8.18,50.75-7.31,56.43-5.92c6.79,1.67,24.42,6,31.18,19.26
		c8.65,16.96-2.3,44.92-29.35,66.04c-6.22,3.92-17.67,11.07-32.1,19.7C2055.01,1097.57,1823.95,1235.64,1577.78,1279.48z"/>
	<path class="st5" d="M1529.45,1282.01c0.61-0.02,0.9,0.03,1.53,0c1.32-0.06,2.37-0.37,3.06-0.62
		c-9.93-24.42-20.29-42.18-27.94-53.86c-1.89-2.89-6.05-8.97-12-16.46c-13.68-17.2-20.72-25.85-30.63-28.17
		c-15.04-3.52-34.8,3.27-40.62,17.87c-5.38,13.48,3.17,28.51,9.03,38.48c11.18,19.04,27.72,34.02,44.4,44.59
		c0.57-0.28,1.17-0.41,1.82-0.39h0.92c0.9,0,1.74,0.23,2.52,0.69c0.27,0.21,0.55,0.43,0.82,0.64c0.47-0.42,1.01-0.75,1.61-0.97
		c3.43,0.21,6.23,0.18,8.19,0.12c4.14-0.13,5.6,0.2,7.95,0c2.92-0.25,5.25-0.81,6.73-1.22c2.44-0.47,5.32-0.84,8.56-0.92
		c4.15-0.1,7.78,0.3,10.7,0.84C1527.5,1282.15,1528.65,1282.03,1529.45,1282.01z"/>
	<path class="st15" d="M2039.52,1008.83c20.48-3.15,44.48-3.15,58.48,14.85c9,12,3,29-8.51,35.59"/>
	<line class="st15" x1="2039.52" y1="1088.08" x2="1953.67" y2="1130.8"/>
	<path class="st5" d="M2045.68,1108.29c-0.44-0.76,16.27-9.54,32.29-22.31c24.11-19.21,42.52-44.1,42.62-44.05c0,0,0,0,0,0
		c0.65,2.14,1.31,4.29,1.96,6.43c13.31,43.68,26.62,87.36,39.92,131.03c-1.13,2.3-2.35,2.97-3.21,3.18
		c-10.26,2.53-32.77-44.81-34.7-50.29c-0.23-0.67-1.11-3.4-3.36-6.42c-0.69-0.93-1.27-1.55-1.53-1.83
		c-6.89-7.5-13.5-17.85-23.29-22.29c-0.38-0.17-0.77-0.34-0.91-0.4c-2.05-0.87-6.48-2.53-12.31-3.13
		C2062.64,1096.08,2046.15,1109.09,2045.68,1108.29z"/>
	<path class="st1" d="M2117.97,1015.61C2174,1211.68,2230,1403.68,2288,1602.68c4,13,6,25,8,38c2,28-6,56-21.88,78.35"/>
	<path class="st15" d="M1534.73,1202.84"/>
	<g>
		<path class="st10" d="M1496.25,1214.91c11.03-4.76,24.29-11.04,35.32-15.88c0,0,5.84-2.55,5.84-2.55c1.02-0.42,2.01-0.77,2.74-1.7
			c0.75-0.95,1.39-2.18,1.61-4.48l3.03,7.4c-3.42-2.82-5.5-2.19-7.38-1.21c-5.82,2.58-11.47,5.55-16.87,8.93
			c-7.17,4.55-13.97,9.72-19.69,16.02C1500.86,1221.45,1496.25,1214.91,1496.25,1214.91L1496.25,1214.91z"/>
	</g>
</g>
<g id="Слой_3">
	<path class="st5" d="M651.09,1629.59c0.2,0.28,3.77,5.34,6.11,12.97c1.2,3.91,3.07,9.99,0.92,11.71c-2.32,1.85-8.84-1.76-12.84-5.7
		c-3.39-3.33-4.81-6.74-6.11-6.33c-1.4,0.44-1.25,4.88-1.22,5.7c0.53,15.2,24.03,39.73,40.36,62.65c4.27,6,8.02,11.84,11.31,17.4
		c1.82,2.63,3.11,4.95,3.97,6.64c2.28,4.46,2.15,5.61,1.83,6.33c-0.59,1.37-2.11,1.89-3.97,2.53c-1.53,0.52-3.71,1.28-6.11,0.63
		c-4.56-1.22-6.27-6.48-6.42-6.96l-15.59-22.78c-2.36,0.66-3.27,1.74-3.67,2.53c-2.97,5.85,8.9,20.71,17.12,31.01
		c1.15,1.44,3.69,4.58,4.28,9.18c0.49,3.8-0.26,9.38-3.36,10.76c-2.88,1.28-6.53-1.62-8.87-3.48c-3.16-2.52-5.37-5.42-13.15-18.04
		c-2.86-4.65-4.87-7.99-6.73-7.59c-1.33,0.28-1.99,2.36-2.14,2.85c-1.12,3.55,0.78,7.17,1.53,8.54
		c20.86,38.37,31.18,48.41,31.18,48.41c3.18,3.09,10.17,9.59,9.78,16.77c-0.05,0.99-0.23,3.62-2.14,5.7
		c-1.88,2.04-4.9,2.96-7.34,2.21c-3.02-0.93-4.5-4.25-4.89-5.06c-5.77-12.09-44.94-48.62-81.02-120.87
		c-3.18-6.37-8.22-16.79-10.09-31.32c-0.32-2.5-1.3-10.98,0.92-28.79c3.41-27.43,8.67-30.97,13.45-60.12
		c2.45-14.92,3.06-26.15,5.5-26.26c1.84-0.08,2.83,6.27,6.11,14.55c2.39,6.04,4.07,8.2,17.73,27.84
		C673.9,1659.82,642.04,1616.76,651.09,1629.59z"/>
	<path class="st3" d="M662.05,1279.73c1.8,2.48,4.14,4.56,6.78,6.1"/>
	<path class="st5" d="M714.62,1047.42c0.23-1.36,0.44-2.72,0.6-4.1l-0.93,4.16C714.4,1047.46,714.51,1047.44,714.62,1047.42z"/>
	<path class="st5" d="M734.25,1066.69c4.11,3.76,8.22,7.52,12.19,11.42c0.98-0.14,2.05,0.05,3.16,0.72
		c0.62,0.37,1.23,0.77,1.83,1.17C745.77,1075.52,740,1071.11,734.25,1066.69z"/>
	<path class="st5" d="M798.29,1114.54c0.05,0.02,0.1,0.04,0.15,0.06c7.1,3.02,13.74,6.87,20.15,11.1c-1.84-1.38-3.71-2.72-5.66-3.93
		c-4.99-3.1-10.39-5.45-15.67-8.03C797.61,1114.01,797.95,1114.27,798.29,1114.54z"/>
	<path class="st5" d="M723.6,1086.57c-3.06-2.7-0.92-7.38,2.2-8.52c-5.4-6.82-10.03-14.2-13.45-22.04c-0.48,1.8-0.98,3.59-1.52,5.38
		l1.3-5.87c-0.53-1.24-1.04-2.48-1.5-3.74c-0.73-1.95-0.12-3.62,1.09-4.73c-0.66-0.55-1.32-1.09-1.96-1.64
		c-1.07,6.75-2.14,13.5-3.21,20.25l-0.98,6.16c-0.56,3.5-1.11,7-1.67,10.5c-2.4,7.29-4.56,14.64-5.78,22.21
		c-3.33,20.69,0.47,42.5-6.11,62.38c-5.04,15.23-15.79,28.02-20.98,43.2c-2.86,8.35-3.95,17.19-5.02,25.96
		c-1.08,8.82-2.16,17.64-3.24,26.46c-0.58,4.76-1.16,9.62-0.2,14.32c0.8,3.9,2.88,7.72,6.09,9.94c1.05-0.22,2.51-0.34,3.53,0.48
		c0.91,0.73,0.86,1.71,1.53,1.85c0.96,0.19,2.23-1.59,2.75-3.08c0.64-1.83,0.23-3.49,0.01-4.22c3.71-11.65,5.18-21.02,5.82-27.59
		c0.48-4.92,0.81-12.63,3.56-23c0.7-2.64,1.48-5.25,2.28-7.85c0.39-2.49,1.02-4.92,1.85-7.35c0.22-0.63,0.52-1.16,0.88-1.61
		c0.1-0.35,0.2-0.69,0.3-1.04c-0.09-0.86,0.03-1.78,0.48-2.72c3.84-24.98,10.15-49.42,17.93-73.41c0.46-3.23,1.68-6.15,3.06-9.2
		c0.06-0.18,0.12-0.36,0.18-0.53c0.79-4.15,2.56-7.93,4.13-11.86c0.49-5.24,1.57-10.39,3.86-14.97c1.08-3.97,3.32-7.51,7.08-9.29
		c0.06-0.28,0.13-0.57,0.19-0.85C726.57,1089.22,725.09,1087.88,723.6,1086.57z"/>
	<path class="st5" d="M728.33,1092.61c0.1-0.04,0.2-0.07,0.3-0.11c-1.68-1.49-3.35-2.98-5.03-4.45c-3.06-2.68-0.92-7.32,2.2-8.46
		c-5.83-7.31-10.75-15.26-14.23-23.73c-0.42,0-0.84,0.08-1.26,0.28c-1.76,0.85-2.09,3.18-2.05,5.14c0.03,1.18,0.12,2.36,0.25,3.53
		l-0.93-5.09c-1.06-0.4-1.67,1.21-1.65,2.35c0.07,5.48,0.3,11.42,3.78,15.65c1.47,1.79,3.42,3.12,5.3,4.48
		c4.49,3.25,8.71,6.87,12.69,10.73C727.9,1092.83,728.1,1092.71,728.33,1092.61z"/>
	<path class="st5" d="M702.29,1145.14c-0.38,4.21-0.76,8.44-1.77,12.55c-1.04,4.23-2.75,8.3-3.47,12.6
		c-0.65,3.86-0.51,7.94-2.18,11.48c-1.87,3.96-5.69,6.59-9.49,8.75c-0.81,0.46-1.85,0.91-2.62,0.38c-0.43-0.29-0.63-0.81-0.79-1.3
		c-2.51-7.78,1.38-16.01,2.35-24.12c0.51-4.26,0.21-8.59,0.92-12.82c0.7-4.2,2.38-8.18,3.27-12.34c0.83-3.91,0.96-7.97,2.06-11.81
		c1.18-4.15,8.47-14.36,12.42-7.22C706.24,1127.2,702.86,1138.86,702.29,1145.14z"/>
	<path class="st5" d="M712.81,1128.7c0.33-1.72,0.83-3.37,1.42-5c-1.46,1.74-2.37,5.08-2.91,8.56c0.41-1,0.85-2,1.31-3.02
		C712.69,1129.06,712.75,1128.88,712.81,1128.7z"/>
	<path class="st5" d="M716.84,1117.2c-2.72,1.31-4.29,6.02-3.55,9.5C714.16,1123.44,715.55,1120.36,716.84,1117.2z"/>
	<path class="st5" d="M713.37,1036.32c-0.06-0.15-0.11-0.3-0.17-0.44c-0.83,0.83-1.83,1.49-2.64,2.33c-1.04,1.07-1.75,2.75-1,4.04
		c0.76,1.29,2.53,1.48,4.03,1.45c1.15-0.03,2.44-0.17,3.15-1.07c0.71-0.89,0.54-2.11,0.06-3.2
		C715.36,1039.02,714.06,1038.02,713.37,1036.32z"/>
	<path class="st1" d="M1051.16,1260.79c19.82,7.91,39.81,15.46,60.13,21.98"/>
	<path class="st1" d="M944.32,1214.09c34.67,17.33,71.06,31.36,106.83,46.7"/>
	<path class="st16" d="M1088.12,1588.33c-4.13-0.43-7.76-2.59-10.55-5.67c0.51-2.96,1.13-5.9,1.77-8.77L1088.12,1588.33z"/>
	<path class="st16" d="M1224.6,1484.53c-3.75,13.73-13.54,24.92-23.63,34.95c-6.68,6.64-13.9,13.18-22.46,16.91
		c1.04,3.38,1.85,6.82,2.41,10.3c3.5,21.91-2.46,44.76-14.18,63.6c-5.15,8.26-11.48,15.95-19.57,21.37
		c-8.09,5.42-18.08,8.39-27.69,6.83c-10.29-1.68-19.06-8.23-27.07-14.92c-4.77-3.99-9.53-8.22-12.46-13.7
		c-4.39-8.23-3.99-17.82-2.38-27.21c2.79,3.08,6.42,5.24,10.55,5.67l-8.78-14.44c-0.64,2.87-1.26,5.81-1.77,8.77
		c-2.73-2.99-4.64-6.86-5.46-10.81c-1.66-8.02,0.28-16.33,2.69-24.16c6.34-20.59,17.03-41.23,35.62-52.11
		c3.5-2.05,7.29-3.73,11.24-4.63c0.17-2.14,0.49-4.25,0.95-6.33c3.25-14.58,13.16-27.34,25.97-35.02l40.81-22.61
		c12.33,2.57,23.46,10.42,30.04,21.16C1226,1458.9,1227.92,1472.38,1224.6,1484.53z"/>
	<path class="st5" d="M1471.73,1179.52c-1.38,7.48-5.89,14.29-6.12,21.89c-0.09,2.97,0.84,6.41,3.56,7.59
		c2.88,1.25,6.16-0.68,8.26-3.01c4.73-5.23,6.51-12.52,6.99-19.56c0.7-10.24-0.99-20.48-2.73-30.6c-1.63-9.46-4.14-17.57-10.2-25.17
		c-4.21-5.28-10.94-9.02-13.35,0.44c-1.83,7.21,5.99,16.83,8.8,23.21C1470.46,1162.26,1473.36,1170.74,1471.73,1179.52z"/>
	<path class="st5" d="M1362.93,1159.4c-4.52,2.09-9.19,4.3-12.4,8.1c-3.21,3.81-4.52,9.7-1.68,13.79c1.63,2.33,4.32,3.71,7.05,4.48
		c10.62,2.98,22.14-2.05,32.89,0.4c5.7,1.3,10.89,4.77,14.27,9.54c3.76,5.3,5.22,11.84,7.54,17.92c2.32,6.07,6.08,12.23,12.2,14.42
		c9.24,3.31,19.53-4.6,22.11-14.07c2.58-9.47-0.46-19.52-4.23-28.58c-3.36-8.08-7.45-16.08-13.82-22.08
		c-9.31-8.75-22.49-12.23-35.25-12.95c-5.03-0.28-10.14-0.18-15.02,1.04c-10.53,2.64-19.04,10.17-27.09,17.45"/>
	<path class="st6" d="M1368.77,1326.31c-28.91,43.32-54.64,88.76-76.93,135.83"/>
	<path class="st5" d="M1044.49,1542.11c22.88-28.47,50.58-52.63,78.11-76.63c19.6-17.08,39.77-34.52,64.13-43.59
		c18.64-6.94,38.75-8.6,58.33-12.11c19.58-3.51,39.62-9.34,54.26-22.81c-10.42,4.67-20.85,9.34-31.27,14.02
		c11.73-5.35,23.78-9.99,36.07-13.9c2.2,6.37,2,13.29,1.78,20.03c-0.66,19.78-1.33,39.7-5.55,59.04
		c-11.26,51.65-46.61,94.56-84.24,131.69c-17.6,17.37-36.75,34.45-60.29,42.03c-15.72,5.06-32.48,5.57-48.99,5.96
		c-10.37,0.24-20.88,0.44-30.96-2.03c-19.34-4.74-35.67-19.61-43.15-38.07c-7.47-18.46-6.24-40.03,2.37-57.98"/>
	<path class="st5" d="M1363.49,1432.39c1.64,0.17,3.23,1.21,4.1,2.72c0.61,0.43,1.16,0.99,1.58,1.63c2.53-4.9,5.23-9.7,8.12-14.4
		L1363.49,1432.39z"/>
	<path class="st5" d="M1251.27,1693.86c-1.39-0.6-2.54-1.86-3.06-3.34c-0.67,1.15-1.33,2.29-2.01,3.43c-1.19,2-3.17,2.62-5.01,2.3
		c-8.47,10.03-18.9,18.39-31.64,24.26c-5.78,2.66-10.56-5.12-5.05-8.63c10.35-6.61,20.1-13.59,28.74-21.77
		c2.79-3.25,5.34-6.69,7.69-10.31c0.77-1.62,1.6-3.21,2.47-4.77c0.57-7.55,3.32-14.68,7.34-21.08c1.99-6.23,4.89-12.23,8.27-17.95
		c-0.26-0.83-0.28-1.76,0.06-2.76c3.45-10.21,7.6-20.28,12.55-29.93c1.86-6.67,4.82-13.18,8.22-19.27
		c0.16-11.26,6.12-22.23,12.31-31.41c2.2-5.32,4.84-10.47,7.6-15.43c5.15-9.25,11.03-18.04,17.06-26.73
		c-0.45-1.18-0.37-2.59,0.55-4.08c6.5-10.44,12.71-21.04,19.53-31.24c0.56-11.36,6.22-21.93,13.11-31.16l-154.34,112.34
		c-7.54,2.31-12.74,9.05-17.26,15.51c-24.14,34.48-44.63,74.82-40.64,116.71c0.44,4.62,1.21,9.33,3.49,13.38
		c2.65,4.71,7.09,8.11,11.58,11.11c17.76,11.87,41.35,19.49,60.25,9.53c13.69-7.21,22.35-22.39,36.86-27.76
		c-5.2,7.39-11.91,13.72-19.59,18.47c6.85-3.36,13.05-7.58,18.74-12.43c-0.33-1.11-0.27-2.37,0.4-3.67
		C1250.06,1696.04,1250.65,1694.95,1251.27,1693.86z"/>
	<path class="st5" d="M1205.78,1657.11c-4.75-21.66-20.27-38.96-36.79-52.97c-30.11-25.53-65.36-43.81-101.86-57.44
		c-8.52-3.18-17.39-6.16-26.42-5.55c-10.6,0.72-20.26,6.28-29.51,11.72c-7.96,4.67-16.24,9.66-21.13,17.71
		c-1.37,2.25-2.48,4.74-4.36,6.53c-3.41,3.25-8.46,3.49-13.07,3.84c-34.51,2.66-67.61,21.73-101.94,17.19
		c-15.97-2.11-30.38-9.66-45.01-16.69c-16.07,30.14-21.05,65.54-20.6,100.05c0.17,12.81,1.07,25.73,4.48,38.05
		c3.71,13.4,10.28,25.7,16.79,37.87c11.42,21.33,23.38,43.28,40.73,59.34c1.44,2.22,3.42,4.31,6.25,5.33
		c0.02,0.01,0.03,0.01,0.05,0.02c0.75,0.59,1.49,1.19,2.26,1.75l-1.32-1.47c4.29,1.28,8.89,1.04,13.37,0.75
		c26.96-1.71,53.99-3.43,80.62-8.15c35.94-6.38,70.76-18.16,105.44-29.91c26-8.81,44.76-15.19,58.21-19.79
		c0.54-0.61,1.25-1.11,2.17-1.42c2.12-0.73,3.97-2.1,5.94-3.17c0.95-0.52,1.89-0.94,2.83-1.3c0.27-1.72,1.31-3.29,3.37-3.96
		c9.95-3.21,19.78-7.27,29.17-11.97c8.27-4.13,15.98-9.1,25.3-9.83c1.77-2.07,3.77-4.83,5.13-8.12c1.88-4.56,1.68-8.25,1.71-14.25
		c0.05-8.64,0.09-17.28,0.14-25.92C1207.77,1675.89,1207.81,1666.33,1205.78,1657.11z"/>
	<path class="st5" d="M979.61,1609.56c-4.14,1.09-8.75-1.25-10.81-5s-1.72-8.55,0.35-12.29s5.69-6.48,9.66-8.06
		c3.47-1.38,8.08-1.65,10.32,1.34c0.98,1.31,1.3,2.99,1.46,4.62c0.38,3.85,0.06,7.77-0.93,11.51c-0.36,1.36-0.86,2.76-1.93,3.67
		c-1.36,1.16-3.31,1.25-5.1,1.28c-3.77,0.06-7.53,0.13-11.3,0.19"/>
	<path class="st5" d="M1027.77,1574.93c-4.12-1.65-5.91-6.43-6.98-10.74c-0.76-3.06-1.3-6.6,0.59-9.13
		c1.45-1.94,3.94-2.72,6.27-3.39c3.51-1.01,8.07-1.69,10.15,1.31c0.73,1.05,0.96,2.36,1.18,3.62c0.89,5.18,1.24,11.66-3.2,14.48
		c-3.31,2.1-7.7,0.97-11.46,2.07"/>
	<path class="st5" d="M617.97,1491.51c1.19-3.8,2.52-7.71,5.24-10.65c4.29-4.64,11.04-5.92,17.31-6.94
		c22.65-3.69,46.25-7.33,68.21-0.71c9.32,2.81,18.01,7.39,26.15,12.69c13.92,9.08,26.38,20.36,36.76,33.28
		c9.42,11.73,17.16,24.81,27.52,35.73c7.63,8.04,16.59,14.78,24.01,23.01c11.46,12.72,18.83,28.47,25.86,44.04
		c8.97,19.85,17.7,39.81,26.16,59.87c6.71,15.92,13.46,32.22,24.87,45.24c9.85,11.23,22.75,19.52,32.54,30.81
		c11.7,13.49,18.46,31.11,18.77,48.91c0.11,6.24-1.17,13.49-6.67,16.51c-2.48,1.36-5.41,1.59-8.24,1.74
		c-51.3,2.76-98.88-6.81-141.47-35.32c-6.76-4.53-13.25-7.54-19.59-13.88c-2.82-2.82-11.81-9.39-14.92-12.26
		c-18.19-16.75-32.77-37.63-48.18-56.92c-2.07-2.6-0.18-0.25-15.08-18.89c-2.4-3-17-21.27-31.32-39.22
		c-14.11-17.69-21.32-26.78-28.93-38.79c-3.47-5.48-6.15-10.09-7.91-13.21c-13.41-23.75-20.47-35.58-22.01-49.59
		C605.12,1529.35,612.79,1508.11,617.97,1491.51z"/>
	<path class="st6" d="M1631.26,1502.53C1632.02,1502.53,1632.02,1502.53,1631.26,1502.53"/>
	<path class="st5" d="M964.45,1807.77c-2.43-1.51-5.4-0.47-7.96,0.72c-7.15,3.32-13.98,7.56-20.34,12.62
		c-0.53,0.42-1.09,0.9-1.27,1.62c-0.26,1.04,0.45,2.15,1.32,2.53c0.87,0.38,1.84,0.23,2.75,0.04c9.92-2.06,19.07-7.62,28.89-10.21
		c4.98-1.31,10.14-1.86,14.88-4.06c1.2-0.55,2.57-2.05,1.8-3.25c-0.21-0.32-0.52-0.51-0.83-0.68c-7.07-3.85-15.76-3.35-22.48,1.31"
		/>
	<path class="st5" d="M935.1,1813.72c-4.43-0.24-8.96-0.28-13.43-0.13c-1.55,0.05-3.12,0.13-4.47,0.37
		c-1.35,0.23-2.45,0.65-2.5,1.13c-0.06,0.65,1.8,1.18,3.7,1.48c2.96,0.47,6.32,0.65,9.64,0.75c2.36,0.07,4.86,0.08,6.98-0.24
		c2.12-0.33,3.65-1.11,2.82-1.79"/>
	<g>
		<path class="st1" d="M1024.45,1922.15c32.55-11.47,64.55-23.47,97.79-35.26"/>
		<path class="st1" d="M711.04,1025.59C703,1063.68,696,1099.68,689,1139.68c-30,149-59,283-93,430c0,1-2,3-2,4c-6,33-16,63-16,95
			c0,4,2,8,3,12c14,29,30,54,49,81c2,4,5,8,7,12c2,2,4,4,6,7c6,10,12,18,19,27c3,6,7,10,10,16c6.36,9.98,15.86,24.29,28.29,40.88
			c20.16,26.88,31.39,41.86,46.79,54.84c32.63,27.51,69.34,33.68,92.18,37.61c38.64,6.64,71.78,2.42,94.47-2.75l104.1-36.86"/>
		<path class="st1" d="M1424.61,1314.37c-2.61,4.3-1.61,9.3-3.61,13.3c-11,24-22,46-33,70c0,1,0,2,0,3c-26,61-53,118-81,178
			c-12,24-22,47-36,70c-3,6-5,11-9,17c-3,6-5,11-8,17c-49.44,98.89-49.9,88.48-79.03,148.48c-3.96,8.16-10.48,21.89-24.32,35.5
			c-11.9,11.7-24.19,18.37-32.1,22.01"/>
	</g>
	<path class="st5" d="M637.02,1617.49"/>
	<path class="st15" d="M1100.89,1895.78"/>
	<path class="st1" d="M602.61,1537.08c4.39,16.6,13.39,31.6,22.39,47.6c37,59,73,110,118,162c11,12,21,23,34,33c17,12,32,24,51,31
		c33,12,67,17,102,18c6,0,11-1,17-2c68-18,130-44,193-71c15-6,28-13,43-18c21-8,39-21,57.64-32.21"/>
	<path class="st17" d="M1169.91,1750.48"/>
	<path class="st17" d="M1156.76,1754.15"/>
	<path class="st5" d="M1413.91,1253.88c-6.67,0.79-11.03,7.32-13.6,13.52c-3.76,9.05-5.73,18.85-5.78,28.65
		c-0.02,4.31,1.04,9.6,5.15,10.89c2.71,0.85,5.57-0.48,8.1-1.77c4.51-2.31,9.01-4.62,13.52-6.93c0.92-0.47,1.86-0.95,2.63-1.64
		c0.92-0.82,1.58-1.9,2.17-2.98c2.82-5.12,4.7-10.76,5.5-16.55c0.51-3.68,0.57-7.56-0.87-10.99c-1.69-4.03-5.35-7.05-9.47-8.53
		c-4.12-1.47-8.65-1.51-12.95-0.73"/>
	<path class="st5" d="M1386.8,1294.95c-5.98,0.86-12.17,1.79-17.23,5.1c-5.06,3.3-8.64,9.68-6.78,15.43
		c0.49,1.49,1.38,2.94,2.77,3.67c1.13,0.6,2.45,0.67,3.73,0.69c19.91,0.42,39.89-6.82,54.92-19.9c0.93-0.81,1.88-1.69,2.36-2.83
		c0.47-1.11,0.45-2.36,0.42-3.57c-0.12-5.22-0.24-10.44-0.37-15.66c-0.04-1.53-0.72-3.63-2.22-3.33"/>
	<path class="st5" d="M1352.09,1295.64c-1.72-0.89-15.35,13.57-12.88,28.06c0.35,2.08,1.18,6.47,4.67,8.71
		c3.47,2.23,8.06,1.3,11.91-0.17c10.55-4.03,19.71-11.62,25.61-21.25c2.14-3.48,3.9-7.41,3.66-11.49c-0.07-1.21-0.33-2.43-0.98-3.45
		c-0.63-0.97-1.58-1.68-2.57-2.27c-1.57-0.93-9.71-4.28-17.99-0.37c-8.81,4.16-11.6,13.68-12.98,13.05
		C1349.13,1305.81,1353.36,1296.3,1352.09,1295.64z"/>
	<path class="st5" d="M1404.86,1295.97c-1.11,2.2-2.08,4.52-2.24,6.98c-0.16,2.46,0.61,5.08,2.51,6.65c2.4,1.99,6.07,1.82,8.8,0.32
		c2.74-1.5,4.7-4.07,6.38-6.7c4.49-7.03,7.51-15,8.81-23.24c0.27-1.73,0.05-4.1-1.67-4.42c-0.9-0.17-1.77,0.37-2.49,0.93
		c-3.07,2.38-5.43,5.54-7.66,8.72c-3.44,4.91-6.66,9.96-9.66,15.14c-1.3,2.25-2.53,5.19-0.98,7.26c0.5,0.66,1.22,1.12,1.98,1.47
		c3.72,1.7,8.28,0.75,11.61-1.63c3.33-2.38,5.58-6,7.22-9.75c1.92-4.4,3.11-9.08,4.03-13.79c0.31-1.59,0.57-3.31-0.16-4.75
		c-1.44-2.85-5.94-2.64-8.22-0.4"/>
	<path class="st6" d="M1371.69,1344.31c0,0.15,0,0.31,0,0.46"/>
	<path class="st5" d="M1349.17,1330.59c-1.12-0.74-3.42-2.25-3.84-4.71c-0.38-2.23,1.55-2.91,1.56-7.17
		c0.01-1.73-0.12-3.46-0.38-5.18c-0.15-0.98-0.36-2-1.06-2.83c-0.7-0.83-2.03-1.43-3.27-1.18c-0.78,0.15-1.4,0.6-1.96,1.04
		c-5.58,4.3-7.8,7.13-8.25,8.34c-1.49,3.97,0.6,5.86-1.6,9.74c-1.22,2.16-1.98,2.34-1.83,3.1c0.7,3.7,21.59,2.92,35.68,1.65
		C1358.53,1333.54,1352.74,1332.95,1349.17,1330.59z"/>
	<path class="st5" d="M1375.84,1332c-2.28,0.37-5.48,0.8-9.94,1.23c-0.55,0.05-1.12,0.11-1.7,0.16c4.3-0.12,8.53-0.67,11.69-1.22
		C1375.88,1332.11,1375.86,1332.06,1375.84,1332z"/>
	<path class="st5" d="M1261.82,1401.52c-0.49-0.14-0.98-0.19-1.47-0.2c-7.52,3.42-14.75,7.29-22.88,8.95
		c-0.44,0.52-0.79,1.12-0.95,1.77l0.19-1.06c-2.02,1.96-0.56,5.68,1.97,6.92s5.5,0.83,8.3,0.56c3.57-0.34,7.22-0.41,10.65-1.46
		c3.44-1.05,6.73-3.29,7.98-6.66C1266.85,1406.97,1265.27,1402.52,1261.82,1401.52z"/>
	<path class="st8" d="M1426.52,1307.43c-38.52,20.25-83.52,11.25-124.53,4.32"/>
	<path class="st5" d="M1361.72,1333.19"/>
	<path class="st17" d="M1229.3,1414.02c16.51-6.49,30.84-12.53,42.6-17.65c20.1-8.76,25.03-11.54,29.96-15.62
		c6.97-5.77,17.58-17.18,23.03-39.04c0.05-0.19,0.09-0.38,0.14-0.57"/>
	<polyline class="st5" points="1325.03,1341.14 1322.95,1340.77 1325.8,1341.14 1325.8,1343.09 1321.48,1357.84 1315.17,1370.22 
		1305.31,1390.4 1293.27,1398.89 1278.95,1406.34 1249.25,1408.86 1246.21,1407.64 1263.87,1399.34 1281.57,1391.29 
		1299.75,1380.84 1311.22,1368.16 	"/>
	<path class="st5" d="M1395.54,1304.42c13.2,7.82,36.51-12.28,40.36-15.59c3.88-3.34,14.71-13.38,21.1-30.27
		c4.14-10.96,8.44-22.34,2.75-33.02c-3.87-7.25-11.39-12.38-19.26-13.76c-10.89-1.9-19.36,3.92-25.68,8.25
		c-14.29,9.81-19.93,23.76-22.93,31.18c-2.67,6.6-6.35,16.01-5.5,28.43C1386.91,1287.48,1387.75,1299.8,1395.54,1304.42z"/>
	<path class="st5" d="M2268.71,1557.56c-1.17-11.04-2.71-13.65-3.97-13.76c-1.95-0.17-2.67,5.61-8.25,17.43
		c-8.45,17.9-7.79,19.88-8.56,21.4c-4.29,8.44-9.01,14.7-7.95,15.59c1.18,1,7.59-6.31,12.13-4.33c0.66,0.29,1.51,0.9,3.16,2.19
		c1.66,1.31,1.5,1.38,3.97,3.36c1.47,1.18,2.18,1.67,3.06,2.75c0.21,0.26,0.83,1.05,1.83,3.06c0.91,1.83,1.2,2.79,2.14,5.2
		c1.46,3.73,1.49,3.26,2.14,5.2c0.9,2.7,0.6,2.9,1.53,5.81c0.35,1.11,0.95,2.59,2.14,5.5c1.13,2.78,1.69,4.17,2.14,5.2
		c2.07,4.7,2.39,4.37,3.36,7.03c0.59,1.62,1.01,3.53,1.83,7.34c0.51,2.33,0.76,3.53,0.92,4.89c0.34,3.06,0.13,5.44,0,6.73
		c-1.8,18.47-2.38,27.78-4.59,36.38c-3.7,14.44-4.08,16.04-3.67,16.2c1.29,0.52,9.28-13.19,14.06-28.74
		c1.6-5.2,4.52-16.06,4.89-30.27c0.54-20.33-4.41-37.01-8.87-48"/>
	<path class="st5" d="M1754.17,1793.74"/>
	<path class="st5" d="M1754.81,1805.99c-13.11,0.91-23.3,7.15-25.19,14.18c-1.39,5.18,2.08,9.44,2.42,9.84
		c4.11,4.86,10.96,4.99,23.63,7.08c12.3,2.03,17.38,1.54,23.92,5.17c4.24,2.36,2.81,2.84,6.41,4.57c9.11,4.36,15.06-0.29,28.61,2.79
		c3.8,0.86,4.69,0.54,10.11,1.2c24.64,2.98,55.95,2.22,56.02,0.7c0.09-1.88-47.75-5.26-58.16-18.6c-0.71-0.92-3.28-4.54-7.97-7.86
		c-5.12-3.63-10.22-5.17-11.96-5.66c-6.84-1.9-12.85-1.84-16.94-1.36"/>
	<path class="st5" d="M1774.11,1848.91c53.74,6.54,64.94,5.53,65.35,3.44c0.96-4.94-58.8-12.11-77.73-8.25
		c-2.69,0.55-4.27,3.29-8.12,4.5c-21.57,6.78-46.92-21.15-46.92-21.15c0,0,18.51,20.2,52.28,33.16c6.19,2.37,11.67,6.96,24.08,7.57
		c7.51,0.37,20.6,4.14,46.78,11.69c33.23,9.59,43.09,18.67,55.72,12.38c4.74-2.36,10.57-7.23,10.32-12.38
		c-0.18-3.68-3.46-7.49-18.57-14.45c-9.05-4.17-21.73-9.18-37.83-13.07"/>
	<path class="st5" d="M1837.4,1869.41c-3.25,0.03-24.5,0.22-26.83,8.25c-0.72,2.5,0.51,5.34,2.06,8.94
		c0.67,1.54,2.62,5.66,6.88,9.63c3.98,3.7,8.01,5.45,11.69,6.88c14.04,5.46,22.7,6.88,22.7,6.88c8.57,1.4,21.99,5.06,48.84,12.38
		c44.94,12.26,52.31,13.96,65.35,13.76c37.21-0.57,65.83-21.01,64.66-24.76c-1.28-4.13-38.2,13.21-66.04-4.13
		c-5.68-3.54-9.36-7.45-18.57-11.01c-13.54-5.23-19.01-1.92-33.71-4.13c-15.82-2.37-13.83-6.85-41.27-15.82
		C1854.38,1870.15,1844.58,1869.35,1837.4,1869.41z"/>
	<path class="st5" d="M2016.94,1886.61c-0.12-0.51,16.26-1.73,39.21-11.69c10.24-4.45,43.03-19.85,69.48-50.9
		c11.06-12.99,26.15-23.22,33.71-38.52c3.28-6.65,8.17-8.18,10.32-10.32c31.11-31.03,43.92-73.75,46.09-72.92
		c2.61,1-18.94,61.56-37.15,83.24c-0.4,0.47-2.38,5.65-7.57,8.94c-8.16,5.18-9.65,11.47-20.64,24.08
		c-10.45,11.99-29.45,29.65-44.03,39.9C2065.55,1887.11,2017.14,1887.48,2016.94,1886.61z"/>
	<path class="st5" d="M2053.4,1830.2c-0.41-1.08,30.07-10.27,66.73-36.46c9.8-7,21.31-14.56,30.27-28.2
		c0.94-1.44,6.13-10.13,16.51-27.52c1.32-2.11,3.17-4.96,5.5-8.25c2.67-3.77,4.01-5.65,4.4-5.5c1.27,0.52-2.02,13.92-7.15,25.45
		c-0.87,1.95-7.8,17.21-21.32,30.96C2116.7,1812.84,2053.99,1831.75,2053.4,1830.2z"/>
	<path class="st1" d="M859.9,1953.79"/>
	<path class="st1" d="M860.36,1958.38"/>
</g>
<g id="Слой_4">
	<path class="st5" d="M1433.36,1182.35c-2.07-2.62-3.24-5.95-3.24-9.3c3.11-1.55,7-1.41,9.99,0.36c1.49,0.88,2.73,2.11,4.17,3.07
		c6.85,4.57,16.63,2.19,23.56,6.64c5.29,3.4,7.63,10.21,7.12,16.47c-0.51,6.26-3.44,12.07-6.8,17.39
		c-6.02,9.51-13.54,17.99-19.88,27.29c-3.15,4.62-6.09,9.54-10.48,13c-4.39,3.46-10.74,5.15-15.63,2.45
		c-0.88-0.49-1.7-1.11-2.66-1.43c-2.98-1-6.21,1.28-7.58,4.11c-1.37,2.83-1.47,6.08-2,9.17c-2.08,11.99-11.1,21.92-21.79,27.74
		c-10.69,5.82-22.93,8.07-35.01,9.52c-3.99,0.48-8.26,0.84-11.84-1c8.01-28.74,24.07-55.19,45.87-75.56
		c7.51-7.02,15.69-13.33,22.76-20.79c7.08-7.46,13.12-16.3,15.19-26.37c0.74-3.61,1.38-7.94,4.71-9.52
		c-0.98-0.18-1.95-0.36-2.93-0.54"/>
	<path class="st6" d="M1389.58,1323.68c0-0.15,0-0.31,0-0.46"/>
	<path class="st18" d="M1334.19,1458.39c3.3-11.25,8.05-22.13,13.26-32.77c4.45-12.95,9.81-25.42,17.34-36.57
		c1.05-4.59,2-9.2,2.89-13.82c-3.54-1.75-7.35-3.03-11.24-4.13c-7.92-2.24-16.26-3.97-24.29-2.2c-5.25,1.16-10.45,3.15-15.41,5.77
		c-1.32-0.47-2.79-0.34-3.77,0.66l-3.26,3.58c-7.22,4.95-13.6,11.19-18.38,18.08c-1.01,1.45-1.98,2.99-2.35,4.72l-5.77,6.34
		c-3.3,1.9-5.16,5.71-6,9.5c-0.84,3.8-0.84,7.73-1.46,11.57c-1.71,10.64-7.94,19.82-12.25,29.65c-6.2,14.15-8.42,30.13-6.32,45.5
		c0.52,3.84,1.35,7.75,3.5,10.93c3.6,5.33,10.36,7.63,16.66,7.39c6.3-0.24,12.32-2.62,18.2-4.96c5.35-2.13,10.69-4.27,16.04-6.4
		c1.05-0.42,2.11-0.84,3.16-1.27c0.01-0.71,0.17-1.45,0.49-2.21c0.33-0.76,0.66-1.53,0.99-2.29
		C1317.92,1488.44,1325.34,1472.94,1334.19,1458.39z"/>
	<path class="st18" d="M1384.17,1340.45c-0.01,0-0.02,0-0.03,0c-0.24,0.05-0.47,0.11-0.7,0.18c-1.18,0.56-2.43,0.65-3.58,0.34
		c-1.76,0.2-3.56,0.43-5.42,0.7c-1.91,0.28-3.76,0.59-5.55,0.91c-0.53,0-1.4,0-2.47,0c-2.58,0-4.44,0-4.7,0
		c-5.07,0-8.97,0.54-15.36,0.46c-5.65-0.08-8.48-0.11-11.12-0.69c-1.23-0.27-3.95-0.94-7.68-0.92c-1.22,0.01-2.22,0.09-2.9,0.15
		c-1.03,2.11-2.21,4.35-3.56,6.67c0.37,0.89,0.46,1.93,0.16,3.11c-1.72,6.61-5.48,12.33-9.54,17.74
		c-3.94,5.25-7.84,10.72-12.59,15.27c-1.65,1.59-3.39,3.08-5.19,4.49c1.49,0.27,3.12,0.21,4.62,0.09c4.02-0.32,8.45-0.83,11.19-3.79
		c1.41-1.52,2.18-3.51,3.37-5.2c2.51-3.56,7.02-5.63,11.37-5.21c4.35,0.41,9.05,2.27,11.41,5.93c5.77,8.96,4.47,20.49,3.86,31.11
		c-0.44,7.71-0.36,15.57,0.69,23.22c1.4-2.69,2.89-5.34,4.44-7.96c1.15-2.8,2.38-5.58,3.65-8.33c-0.03-0.56,0.04-1.16,0.24-1.79
		c2.64-8.23,6.41-15.82,10.79-23.07c4.8-10.06,10.03-19.91,15.48-29.64c2.58-6.28,5.31-12.5,8.21-18.65
		c-0.37-0.93-0.43-1.97,0.01-3.03C1383.55,1341.86,1383.86,1341.16,1384.17,1340.45z"/>
	<path class="st8" d="M883.37,1749.31c-5.93,18.43-11.91,36.84-17.96,55.23"/>
	<path class="st8" d="M951.39,1533.03c-14.39,49.65-32.39,99.65-46.81,149.61"/>
	<path class="st8" d="M1038.72,1256.68c-24.72,76-48.72,152-72.09,227.78"/>
	<path class="st8" d="M1088.12,1100.54c-3.12,9.14-6.12,18.14-9.12,27.14c-4,15-9,29-13,44c-2,4-3,9-5,13c-5,16-9,32-14.62,47.8"/>
	<path class="st8" d="M806.76,1550.95C760,1502.68,721,1448.68,686.03,1391.54"/>
	<path class="st8" d="M1043.25,1620.55c-34.25,4.08-69.25,3.51-103.8,0.96"/>
	<path class="st8" d="M1308.57,1536.52c-37.99,14.8-76.32,28.69-114.92,41.83c-10.8,3.68-21.63,7.3-32.47,10.87"/>
	<path class="st12" d="M1426.07,1315.74c-1.53,2.22-2.97,4.51-4.34,6.82c-3.93,6.63-6.9,13.02-9.17,18.87l-17.84,40.32l-40.3,83.1
		l-48.39,105.32l-36.53,69.71l-14.29,32.78l-17.55,28.81c-36.15,24.79-45.52,27.84-47.28,25.93c-2.52-2.72,10.4-15.56,32.81-48.16
		c0.59-0.85,13.12-19.13,23.16-36.12c14.88-25.18,21.15-44.21,30.87-64.83c30.32-64.25,45.73-97,57.9-126.88
		c12.73-31.24,14.68-39.22,26.05-64.83c2.82-6.34,9.66-21.52,17.37-42.6c0.43-1.16,0.82-2.28,1.22-3.38
		c1.16,0.02,2.06-0.12,2.67-0.25c0.65-0.14,0.8-0.24,1.63-0.4c0.94-0.19,1.28-0.17,2.18-0.32c0.96-0.15,1.59-0.33,2.21-0.49
		c2.32-0.59,3.21-0.59,6.56-1.35c4.17-0.94,3.18-1.04,6.02-1.61c0.83-0.16,1.83-0.34,2.98-1.01c0.73-0.42,1.75-1,2.26-2.07
		c1.17-2.43-0.7-6.05-2.14-6.13c-0.35-0.02-0.65,0.21-1.23,0.34c-0.23,0.05-0.25,0.03-0.71,0.09c-0.24,0.03-0.62,0.09-1.08,0.18
		c-0.49,0.1-1,0.23-1,0.23s-1.44,0.59-1.53,0.43c-0.04-0.07,0.16-0.3,0.38-0.32c0.14-0.01,0.29,0.06,0.29,0.09
		c0.04,0.23-8.13,1.75-17.54,3.41c0.75-0.72,2.02-2.17,2.73-4.37c0.42-1.31,0.51-2.47,0.51-3.31c2.54-0.27,4.69-0.54,6.36-0.77
		c2.67-0.37,4.01-0.55,5.25-0.83c0.93-0.21,1.43-0.37,2.41-0.49c0.26-0.03,1.35-0.16,2.09-0.32c0.43-0.09,0.83-0.2,0.83-0.2
		c0.17-0.05,0.22-0.06,0.49-0.14c0.13-0.04,0.6-0.18,1-0.29c0.26-0.07,0.62-0.16,1.06-0.26c2.46-0.57,4.43-1.17,5.82-1.63
		c0.71-0.23,1.28-0.44,2.15-0.75c1.97-0.7,3.59-1.32,5.08-1.89c7.12-2.73,9.81-4.14,10.26-3.46
		C1428.02,1313.12,1427.37,1313.85,1426.07,1315.74z"/>
	<g>
		<path class="st10" d="M1418.91,1330.43c2.09-7.49,11.16-21.81,2.49-27.09c0,0,7.9-9.03,7.9-9.03c2.92,2.88,5.16,7.14,5.45,11.29
			c0.66,10.74-6.49,18.33-11.21,26.77C1423.55,1332.36,1418.91,1330.43,1418.91,1330.43L1418.91,1330.43z"/>
	</g>
	<path class="st12" d="M1099.29,1503.45c4.33-6.28,4.64-6.83,23.32-18.83c11.54-7.41,15.89-8.88,18.29-9.25
		c0.51-0.08,0.89-0.1,1.04-0.12c15.1-1.48,75.91-19.37,77.04-16.51c0.53,1.35-11.79,8.31-27.52,17.2c0,0-15.1,8.53-22.01,19.95
		c-0.29,0.48-0.54,0.99-0.54,0.99c-1.14,2.49-0.23,4.27-13.22,27.9c-6.5,11.84-6.56,13.86-13.76,26.14
		c-4.3,7.33-6.53,11.1-10.32,15.82c-5.75,7.17-11.01,13.73-18.57,17.2c-10.69,4.9-14.43-1.68-35.47-1.27
		c-17.64,0.34-19.97,5.06-35.38,3.34c-12.01-1.34-12.09-4.37-21.32-4.82c-21.84-1.05-36.09,15.2-37.83,13.07
		c-2.07-2.54,15.13-29.18,40.59-34.39c5.35-1.1,10.52-1.94,21.32-4.13c4.09-0.83,13.39-2.8,22.19-9.03
		c6.83-4.84,10.82-10.45,17.02-19.17c3.24-4.57,6.56-9.91,8.94-13.76C1097.94,1505.94,1097.57,1505.94,1099.29,1503.45z"/>
	<path class="st12" d="M1219.43,1448.15"/>
	<path class="st19" d="M1385.62,1323.94"/>
	<path class="st20" d="M1381.15,1328.75"/>
	<path class="st20" d="M1380.18,1330.96"/>
	<path class="st12" d="M1396.83,1327.4c-1.42,0.45-2.85,0.9-4.27,1.35"/>
	<path class="st12" d="M1397.61,1327.69c0.16-0.01,0.38-0.03,0.63-0.09c0.42-0.09,0.72-0.23,0.72-0.23c0,0-0.24,0.1-0.28,0.05
		c-0.05-0.07,0.34-0.27,0.36-0.59c0.02-0.21-0.13-0.39-0.32-0.6c-0.12-0.14-0.28-0.33-0.54-0.43c-0.2-0.08-0.37-0.07-0.72-0.06
		c-0.17,0.01-0.35,0.03-0.72,0.09c-0.33,0.05-0.5,0.07-0.66,0.11c-0.16,0.04-0.3,0.09-0.54,0.17c-0.16,0.05-0.26,0.09-0.4,0.14
		c-0.22,0.08-0.49,0.19-0.8,0.37c-0.17,0.1-0.3,0.18-0.4,0.26c-0.16,0.11-0.24,0.16-0.34,0.26c-0.13,0.11-0.11,0.12-0.29,0.29
		c-0.12,0.12-0.15,0.13-0.29,0.26c-0.11,0.1-0.18,0.18-0.23,0.23c-0.47,0.49-0.66,0.54-0.8,0.86c-0.06,0.14-0.14,0.39-0.06,0.45
		c0.1,0.07,0.4-0.18,0.6-0.37"/>
	<path class="st12" d="M1396.32,1327.37c-0.93,0.38-1.94,0.84-1.89,1c0.04,0.13,0.68,0.04,0.97,0c0.92-0.13,2.26-0.44,3.93-1.29"/>
	<path class="st5" d="M1436.12,1172.07c3.19-1.2,13.71-6.06,16.83-3.38c1.14,0.98,1.66,5.68,2.43,7.25
		c1.11,2.25,2.55,4.35,4.26,6.19c2.4,2.57,5.65,4.74,9.16,4.51c3.96-0.26,7.19-3.58,8.58-7.29c1.39-3.72,1.3-7.8,1.19-11.77
		c-0.11-4.17-0.25-8.47-2-12.26c-1.27-2.75-3.36-5.11-5.94-6.69c-3.17-1.95-7.21-2.68-10.7-1.39c-3.48,1.28-6.05,4.42-7.31,7.91
		c-1.37,3.78-2.9,11.79,1.28,13.81c4.38,2.12,8.57,1.77,10.8,7.29c1.8,4.47,0.29,9.62-2.14,13.78c-0.86,1.47-1.87,2.91-3.3,3.85
		c-1.33,0.88-2.93,1.25-4.5,1.54c-5.16,0.95-10.67,1.13-15.48-0.97s-8.7-6.94-8.39-12.17c0.13-2.17,0.94-4.24,1.95-6.17
		c0.57-1.09,1.24-2.18,2.24-2.9c1-0.72,2.41-0.99,3.47-0.37"/>
	<path class="st5" d="M1459.09,1166.88c-2.92-1.02-6.3,0.21-8.4,2.48c-2.1,2.27-3.08,5.38-3.39,8.46c-0.36,3.53,0.33,7.57,3.23,9.6
		c3.11,2.19,7.39,1.2,10.94-0.16c3.57-1.37,7.4-3.47,8.36-7.17c0.53-2.07,0.02-4.32-1.1-6.13c-1.12-1.82-2.8-3.23-4.63-4.34
		c-3.14-1.9-7.4-2.85-10.34-0.66c-1.51,1.12-2.41,2.88-3.16,4.61"/>
	<path class="st5" d="M1456.01,1155.46c0.7,2.38,1.3,4.82,1.26,7.29c-0.04,2.48-0.79,5.02-2.5,6.82c-1.7,1.8-4.45,2.7-6.77,1.82
		c-0.88-0.33-1.68-0.93-2.11-1.76c-1.07-2.11,0.59-4.48,1.51-6.66c0.72-1.72,0.99-3.59,1.24-5.43c0.23-1.65,0.46-3.3,0.69-4.95
		c0.21-1.5,0.42-3.01,0.47-4.52c0.07-2.05-0.15-4.11-0.49-6.13c-0.51-2.97-1.29-5.91-2.49-8.68c-0.66-1.53-1.44-2.99-2.27-4.43
		c-1.93-3.34-4.22-6.95-3.56-10.75c0.23-1.29,0.79-2.5,1.48-3.6c2.53-4.03,6.98-6.8,11.72-7.29c0.88-0.09,1.82-0.1,2.62,0.29
		c0.46,0.23,0.85,0.58,1.3,0.82c1.12,0.6,2.5,0.48,3.66,0.99c2.23,0.98,2.87,3.76,3.56,6.1c2.06,6.96,7.01,13.19,7.02,20.45
		c1.1-2.04,0.69-4.8-0.97-6.42c-0.12-0.11-0.25-0.23-0.41-0.24c-0.2-0.01-0.37,0.13-0.51,0.28c-1.25,1.38-0.89,3.51-0.59,5.34
		c0.81,4.93,0.68,10.01-0.37,14.9c-0.52,2.4-1.29,4.81-2.72,6.81c-1.43,2-3.62,3.57-6.07,3.8c-1.08,0.1-2.26-0.09-3.01-0.87
		c-0.26-0.26-0.45-0.58-0.64-0.89c-0.26-0.43-0.52-0.85-0.79-1.28"/>
	<path class="st5" d="M1467.73,1128.57c0.27,0.96,0.63,1.92,1.27,2.69c0.63,0.77,1.58,1.34,2.57,1.32c0.58-0.01,1.24-0.33,1.3-0.9
		c0.03-0.24-0.06-0.48-0.16-0.71c-0.45-1.03-1.1-1.97-1.9-2.74c-0.45-0.44-1.15-0.83-1.66-0.46c-0.21,0.16-0.32,0.41-0.47,0.63
		c-0.15,0.22-0.41,0.41-0.66,0.33"/>
	<path class="st5" d="M1446.59,1112.71c-0.75,2.97-1.55,6.03-3.42,8.46c-0.63,0.82-1.42,1.65-1.48,2.69
		c-2.45-2.4-4.04-5.52-5.49-8.62c-0.96-2.06-1.88-4.16-2.28-6.39c-0.29-1.59-0.31-3.21-0.2-4.82c0.25-3.97,1.24-7.9,2.91-11.51
		c4.33-9.4,13.08-16.28,22.73-20c1.85-0.71,3.8-1.33,5.78-1.21c1.98,0.13,4.01,1.14,4.84,2.94c0.71,1.53,0.46,3.32,0.15,4.98
		c-1.04,5.69-2.52,11.31-3.17,17.06c-0.11,0.94-0.19,1.89-0.45,2.79c-0.2,0.7-0.51,1.37-0.78,2.04c-1.17,2.9-1.75,6.04-1.7,9.17
		c0.01,0.9,0.08,1.81-0.12,2.68c-0.23,1.01-0.82,1.91-1.48,2.71c-2.11,2.53-5.18,4.21-8.43,4.76c-2.05,0.35-4.29,0.22-5.98-0.99
		c-1.69-1.2-2.55-3.7-1.44-5.46c0.04-0.25-0.38-0.05-0.44,0.19"/>
	<path class="st5" d="M1465.25,1074.33c2.59-0.84,5.43-0.88,8.04-0.11c1.01,0.3,2.05,0.77,2.6,1.66c0.53,0.86,0.5,1.95,0.23,2.92
		c-0.28,0.97-0.78,1.85-1.18,2.77c-0.98,2.26-1.5,4.98-3.57,6.32c-1.56,1.01-3.72,0.87-5.25-0.18s-2.42-2.92-2.46-4.77
		c-0.04-1.86,0.7-3.69,1.88-5.12c0.73-0.89,1.64-1.66,2.18-2.68"/>
	<path class="st5" d="M1466.42,1098.69c1.46-2.68,3.09-5.28,4.99-7.68c3.74-4.73,8.5-8.64,13.86-11.4c1.02-0.53,2.17-1.12,2.52-2.21
		c0.48-1.46-0.73-2.93-2.01-3.79c-3.26-2.18-7.35-2.6-11.26-2.95c-3.7-0.33-7.72-0.59-10.83,1.45c-2.1,1.38-3.48,3.67-4.22,6.08
		c-0.73,2.41-0.88,4.95-0.96,7.47c-0.05,1.43-0.07,2.89,0.35,4.26c0.53,1.75,1.73,3.21,2.54,4.85c0.45,0.91,0.78,1.87,1.32,2.72
		c0.54,0.85,1.34,1.61,2.34,1.79c0.99,0.18,2.15-0.41,2.35-1.4"/>
	<path class="st5" d="M1461.85,1109.75c-0.23,1.26,0.04,2.6,0.72,3.67c0.22,0.35,0.5,0.68,0.87,0.84c0.38,0.17,0.87,0.12,1.13-0.19
		c0.21-0.25,0.23-0.61,0.24-0.94c0.02-0.78,0.03-1.59-0.25-2.31c-0.29-0.73-0.95-1.36-1.73-1.38s-1.54,0.79-1.29,1.53"/>
	<path class="st5" d="M1481.56,1158.78c-1.19,2.79-0.7,5.97-0.19,8.96c0.29,1.67,0.61,3.44,1.71,4.73c0.13,0.15,0.32,0.3,0.49,0.21
		c0.09-0.05,0.14-0.15,0.18-0.24c0.9-2.12,0.9-4.52,0.54-6.8c-0.37-2.27-1.09-4.47-1.6-6.72c-0.58-0.02-1.14,0.46-1.2,1.04"/>
	<path class="st12" d="M1824.33,1552.37c-8.64-7.28-9.29-9.8-11.94-12.25c0,0-1.13-0.98-2.38-1.81c-4.32-2.86-18.58-2.02-27.6-3.15
		c-11.35-1.42-16.99-6.28-31.03-6.98c-0.5-0.03-0.7-0.03-1.28-0.06c-10.12-0.6-17.45-3.47-21.16-4.87
		c-14.89-5.59-14.12-3.38-27.65-8.85c-12.84-5.19-21.99-10.6-24.46-12.08c-20.47-12.32-31.36-25.49-32.01-24.89
		c-0.57,0.53,7.64,10.92,44.15,52.16c0,0,18.74,5.72,27.4,13.64c0.37,0.34,0.68,0.69,0.68,0.69c1.43,1.74,0.34,3.01,16.63,19.43
		c8.16,8.23,8.25,9.65,17.28,18.18c5.39,5.09,8.19,7.7,12.92,10.96c7.17,4.95,13.74,9.47,23.12,11.77
		c13.26,3.25,17.79-1.47,43.77-1.6c21.78-0.11,24.7,3.17,43.71,1.66c14.81-1.18,14.87-3.33,26.27-3.82
		c26.95-1.17,44.72,10.02,46.85,8.48c2.53-1.83-19-20.29-50.49-23.47c-13.19-1.33-26.34-2.75-26.37-2.49
		c-0.04,0.36,26.27,3.17,26.37,2.49c0.08-0.55-17.55-0.3-37-9.73c-9.4-4.56-22.7-13.07-22.7-13.07
		C1837.4,1562.69,1829.46,1556.69,1824.33,1552.37z"/>
</g>
</svg>
